<svg width="80" height="80" viewBox="0 0 80 80" fill="none" xmlns="http://www.w3.org/2000/svg">
<rect width="80" height="80" fill="white"/>
<path d="M51.914 32.9384C51.914 32.9384 48.0299 45.4667 47.7151 46.5009C47.5996 45.4372 44.7522 22.9512 44.7522 22.9512C38.1361 22.9512 34.587 27.797 32.7301 32.9088C32.7301 32.9088 28.0142 45.4667 27.6099 46.5305C27.5811 45.5554 26.8909 33.0566 26.8909 33.0566C26.501 26.7924 20.9101 22.9807 16.3936 22.9807L21.8573 57.0495C28.7882 57.02 32.5279 52.2037 34.483 47.0919C34.483 47.0919 38.653 36.0114 38.8148 35.5091C38.8552 35.9818 41.8066 57.0495 41.8066 57.0495C48.7663 57.0495 52.506 52.5287 54.5131 47.5942L64.2624 22.9807C57.4009 22.9807 53.7824 27.797 51.914 32.9384Z" fill="#4253FF"/>
</svg>
