<svg width="80" height="80" viewBox="0 0 80 80" fill="none" xmlns="http://www.w3.org/2000/svg">
<rect width="80" height="80" fill="white"/>
<rect width="80" height="80" fill="white"/>
<path d="M41.2096 59.2481L30.0075 59.0387C26.3805 58.9658 22.7445 59.1114 19.1886 58.3556C13.7793 57.2263 13.3961 51.6892 12.9951 47.0447C12.4426 40.515 12.6565 33.8669 13.6992 27.3917C14.2878 23.7585 16.6043 21.5905 20.1867 21.3546C32.2799 20.4984 44.4536 20.5999 56.52 20.9993C57.7944 21.0359 59.0775 21.236 60.3341 21.4639C66.5369 22.575 66.6882 28.8497 67.0903 34.1318C67.4913 39.4685 67.3219 44.8325 66.5555 50.1329C65.9406 54.5214 64.7642 58.2016 59.7994 58.5569C53.5788 59.0214 47.501 59.3954 41.2629 59.2763C41.2632 59.2481 41.2273 59.2481 41.2096 59.2481ZM34.6238 48.1376C39.3115 45.3871 43.9098 42.6825 48.5708 39.9504C43.8743 37.1999 39.2847 34.4952 34.6238 31.7632V48.1376Z" fill="#FE012B"/>
</svg>
