<svg width="80" height="80" viewBox="0 0 80 80" fill="none" xmlns="http://www.w3.org/2000/svg">
<rect width="80" height="80" fill="white"/>
<path d="M47.3995 22.008V22H49.4626L50.2164 22.1518C50.719 22.2504 51.1752 22.3796 51.5852 22.5394C51.9952 22.6992 52.392 22.8857 52.7755 23.0988C53.159 23.3119 53.5069 23.529 53.819 23.7501C54.1284 23.9685 54.4062 24.2002 54.6522 24.4453C54.8955 24.693 55.275 24.7569 55.7908 24.6371C56.3066 24.5172 56.862 24.3507 57.4572 24.1376C58.0523 23.9245 58.6408 23.6848 59.2227 23.4184C59.8046 23.152 60.1591 22.9829 60.2861 22.911C60.4104 22.8364 60.4765 22.7965 60.4844 22.7911L60.4923 22.7791L60.532 22.7592L60.5717 22.7392L60.6114 22.7192L60.651 22.6992L60.659 22.6872L60.6709 22.6792L60.6828 22.6713L60.6907 22.6593L60.7304 22.6473L60.7701 22.6393L60.7622 22.6992L60.7502 22.7592L60.7304 22.8191L60.7106 22.879L60.6907 22.919L60.6709 22.9589L60.651 23.0189C60.6378 23.0588 60.6246 23.1121 60.6114 23.1787C60.5982 23.2453 60.4725 23.5116 60.2344 23.9778C59.9964 24.444 59.6988 24.9168 59.3418 25.3962C58.9847 25.8757 58.6647 26.2379 58.3816 26.483C58.096 26.7307 57.9069 26.9039 57.8142 27.0024C57.7217 27.1036 57.6093 27.1969 57.477 27.2821L57.2786 27.414L57.239 27.434L57.1993 27.4539L57.1914 27.4659L57.1794 27.4739L57.1675 27.4819L57.1596 27.4939L57.1199 27.5139L57.0803 27.5339L57.0724 27.5458L57.0604 27.5538L57.0485 27.5618L57.0406 27.5738L57.0327 27.5858L57.0207 27.5938L57.0088 27.6018L57.0009 27.6138H57.1993L58.3102 27.374C59.0508 27.2142 59.7583 27.0211 60.4328 26.7947L61.5041 26.4351L61.6231 26.3951L61.6826 26.3751L61.7223 26.3552L61.7619 26.3352L61.8016 26.3152L61.8413 26.2952L61.9207 26.2832L62 26.2752V26.3552L61.9802 26.3632L61.9603 26.3751L61.9524 26.3871L61.9405 26.3951L61.9286 26.4031L61.9207 26.4151L61.9128 26.4271L61.9008 26.4351L61.8889 26.4431L61.881 26.455L61.8731 26.467L61.8611 26.475L61.8413 26.515L61.8215 26.5549L61.8096 26.5629C61.8043 26.5709 61.6363 26.7973 61.3057 27.2422C60.9751 27.6897 60.7965 27.9161 60.7701 27.9214C60.7436 27.9294 60.7066 27.9694 60.659 28.0413C60.614 28.1158 60.3336 28.4129 59.8179 28.9323C59.3021 29.4517 58.7969 29.9138 58.3023 30.3188C57.805 30.7263 57.5537 31.2271 57.5485 31.8211C57.5405 32.4124 57.5101 33.081 57.4572 33.8269C57.4043 34.5727 57.3051 35.3785 57.1596 36.2442C57.0142 37.1099 56.7893 38.0888 56.4851 39.1809C56.181 40.273 55.8106 41.3385 55.3742 42.3774C54.9378 43.4162 54.4815 44.3485 54.0054 45.1743C53.5293 46 53.0929 46.6992 52.6961 47.2719C52.2994 47.8446 51.896 48.384 51.486 48.8901C51.0761 49.3962 50.5577 49.9663 49.9308 50.6002C49.3013 51.2315 48.9574 51.5778 48.8992 51.6391C48.8384 51.6977 48.5792 51.9161 48.1216 52.2943C47.6666 52.6752 47.1773 53.0561 46.6536 53.4371C46.1325 53.8153 45.6537 54.131 45.2173 54.384C44.7809 54.6371 44.2546 54.9261 43.6382 55.2511C43.0246 55.5787 42.3607 55.8824 41.6465 56.162C40.9324 56.4417 40.1785 56.7014 39.385 56.9412C38.5915 57.1809 37.8245 57.3674 37.0839 57.5006C36.3433 57.6337 35.5035 57.747 34.5645 57.8402L33.156 57.98V58H30.5771V57.98L30.2399 57.96C30.0151 57.9467 29.8299 57.9334 29.6844 57.9201C29.539 57.9068 28.9901 57.8335 28.0379 57.7003C27.0857 57.5672 26.3385 57.4339 25.7962 57.3008C25.254 57.1676 24.4473 56.9145 23.376 56.5416C22.3048 56.1687 21.3883 55.7918 20.6265 55.4109C19.8674 55.0326 19.3913 54.7929 19.1982 54.6917C19.0078 54.5931 18.7935 54.4706 18.5555 54.3241L18.1984 54.1043L18.1905 54.0923L18.1785 54.0844L18.1666 54.0764L18.1587 54.0644L18.119 54.0444L18.0794 54.0244L18.0715 54.0124L18.0595 54.0044L18.0476 53.9964L18.0397 53.9845L18.0318 53.9725L18.0198 53.9645H18V53.8846L18.0397 53.8926L18.0794 53.9046L18.2579 53.9245C18.3769 53.9378 18.7009 53.9578 19.2299 53.9845C19.759 54.0111 20.321 54.0111 20.9161 53.9845C21.5113 53.9578 22.1197 53.8979 22.7412 53.8047C23.3628 53.7114 24.0968 53.5516 24.9432 53.3252C25.7896 53.0988 26.5673 52.8297 27.2761 52.5181C27.9824 52.2038 28.4849 51.9694 28.7838 51.8149C29.08 51.663 29.5323 51.3807 30.1407 50.9678L31.0532 50.3485L31.0611 50.3365L31.073 50.3285L31.085 50.3205L31.0929 50.3085L31.1008 50.2966L31.1127 50.2886L31.1247 50.2806L31.1326 50.2686L31.1722 50.2566L31.2119 50.2486L31.2198 50.2087L31.2317 50.1687L31.2437 50.1607L31.2516 50.1487L30.9342 50.1287C30.7226 50.1154 30.5176 50.1021 30.3192 50.0888C30.1208 50.0755 29.8101 50.0156 29.3868 49.909C28.9637 49.8024 28.5074 49.6426 28.018 49.4295C27.5287 49.2164 27.0526 48.9634 26.5897 48.6704C26.1269 48.3774 25.7922 48.1336 25.5859 47.9392C25.3823 47.7474 25.1178 47.4757 24.7924 47.1241C24.4697 46.7698 24.1894 46.4062 23.9513 46.0333C23.7133 45.6604 23.4858 45.2301 23.2689 44.7427L22.9396 44.0155L22.9197 43.9556L22.8999 43.8957L22.888 43.8557L22.8801 43.8158L22.9396 43.8238L22.9991 43.8357L23.4355 43.8957C23.7265 43.9356 24.1828 43.9489 24.8043 43.9356C25.4259 43.9223 25.8557 43.8957 26.0938 43.8557C26.3318 43.8158 26.4773 43.7891 26.5302 43.7758L26.6096 43.7558L26.7087 43.7358L26.8079 43.7159L26.8159 43.7039L26.8278 43.6959L26.8397 43.6879L26.8476 43.6759L26.7683 43.6559L26.6889 43.636L26.6096 43.616L26.5302 43.596L26.4509 43.576C26.398 43.5627 26.3054 43.5361 26.1731 43.4961C26.0409 43.4562 25.6838 43.3096 25.1019 43.0566C24.52 42.8036 24.0571 42.5572 23.7133 42.3174C23.3685 42.077 23.0398 41.8141 22.7293 41.5303C22.4198 41.2426 22.08 40.8724 21.7096 40.4195C21.3394 39.9667 21.0087 39.4406 20.7178 38.8413C20.4268 38.242 20.2086 37.6693 20.0631 37.1232C19.9182 36.5803 19.8226 36.0253 19.7775 35.465L19.706 34.626L19.7457 34.634L19.7854 34.6459L19.8251 34.6659L19.8647 34.6859L19.9044 34.7059L19.9441 34.7259L20.5591 35.0055C20.9691 35.192 21.4782 35.3518 22.0866 35.485C22.6949 35.6182 23.0586 35.6915 23.1776 35.7048L23.3562 35.7248H23.7133L23.7054 35.7128L23.6934 35.7048L23.6815 35.6968L23.6736 35.6848L23.6657 35.6728L23.6537 35.6648L23.6418 35.6568L23.6339 35.6448L23.5942 35.6249L23.5546 35.6049L23.5467 35.5929L23.5347 35.5849L23.5228 35.5769L23.5149 35.5649L23.4752 35.545L23.4355 35.525L23.4276 35.513C23.4197 35.5076 23.3059 35.4224 23.0864 35.2573C22.8695 35.0895 22.642 34.8724 22.404 34.606C22.1659 34.3396 21.9279 34.0599 21.6898 33.7669C21.4513 33.4733 21.2389 33.1591 21.055 32.828C20.8699 32.495 20.6741 32.0714 20.4678 31.5574C20.2642 31.0459 20.1094 30.5305 20.0036 30.0111C19.8978 29.4917 19.8383 28.9789 19.8251 28.4728C19.8119 27.9667 19.8251 27.5339 19.8647 27.1743C19.9044 26.8147 19.9838 26.4084 20.1028 25.9556C20.2218 25.5028 20.3938 25.0233 20.6186 24.5172L20.9558 23.758L20.9757 23.6981L20.9955 23.6382L21.0074 23.6302L21.0153 23.6182L21.0233 23.6062L21.0352 23.5982L21.0471 23.6062L21.055 23.6182L21.0629 23.6302L21.0748 23.6382L21.0868 23.6462L21.0947 23.6582L21.1026 23.6701L21.1145 23.6781L21.1344 23.7181L21.1542 23.758L21.1661 23.766L21.174 23.778L21.7096 24.3774C22.0667 24.7769 22.4899 25.2231 22.9793 25.7159C23.4686 26.2086 23.7397 26.4644 23.7926 26.483C23.8455 26.5043 23.9116 26.5656 23.991 26.6668C24.0703 26.7654 24.3348 27.0011 24.7845 27.374C25.2342 27.7469 25.8227 28.1798 26.55 28.6726C27.2775 29.1654 28.0842 29.6515 28.9702 30.131C29.8564 30.6104 30.8086 31.0433 31.8269 31.4295C32.8452 31.8158 33.5594 32.0688 33.9693 32.1887C34.3793 32.3085 35.0803 32.4617 36.0721 32.6482C37.064 32.8346 37.8113 32.9545 38.3138 33.0078C38.8164 33.061 39.1602 33.0917 39.3454 33.0997L39.6231 33.1077L39.6152 33.0477L39.6032 32.9878L39.5239 32.4883C39.471 32.1554 39.4445 31.6892 39.4445 31.0899C39.4445 30.4906 39.4908 29.9379 39.5834 29.4317C39.676 28.9256 39.8149 28.4129 40 27.8935C40.1852 27.374 40.3664 26.9571 40.5436 26.6428C40.7234 26.3312 40.9588 25.9756 41.2498 25.576C41.5408 25.1765 41.9177 24.7636 42.3805 24.3374C42.8434 23.9112 43.3724 23.5316 43.9675 23.1987C44.5627 22.8657 45.1115 22.6126 45.6141 22.4395C46.1166 22.2664 46.5399 22.1531 46.8837 22.0999C47.2275 22.0466 47.3995 22.016 47.3995 22.008V22.008Z" fill="white"/>
<path d="M61.9997 39.6321C61.9997 37.7134 61.844 36.3133 61.507 34.8613H39.5977V43.5213H52.458C52.1988 45.6734 50.7987 48.9144 47.6872 51.0923L47.6436 51.3822L54.5709 56.7487L55.0509 56.7966C59.4586 52.7258 61.9997 46.7364 61.9997 39.6321" fill="#4285F4"/>
<path d="M39.5983 62.4487C45.8988 62.4487 51.1881 60.3743 55.0516 56.7964L47.6879 51.092C45.7174 52.4662 43.0726 53.4255 39.5983 53.4255C33.4274 53.4255 28.19 49.3549 26.323 43.7285L26.0493 43.7518L18.8462 49.3263L18.752 49.5882C22.5893 57.211 30.4715 62.4487 39.5983 62.4487Z" fill="#34A853"/>
<path d="M26.3228 43.7293C25.8301 42.2773 25.545 40.7215 25.545 39.114C25.545 37.5064 25.8301 35.9507 26.2968 34.4988L26.2838 34.1895L18.9904 28.5254L18.7517 28.6389C17.1702 31.8022 16.2627 35.3544 16.2627 39.114C16.2627 42.8736 17.1702 46.4257 18.7517 49.5889L26.3228 43.7293" fill="#FBBC05"/>
<path d="M39.5983 24.8003C43.9801 24.8003 46.9359 26.6931 48.6213 28.2748L55.2071 21.8446C51.1624 18.085 45.8988 15.7773 39.5983 15.7773C30.4715 15.7773 22.5893 21.0148 18.752 28.6377L26.297 34.4975C28.19 28.8711 33.4274 24.8003 39.5983 24.8003" fill="#EB4335"/>
</svg>
