<svg width="80" height="80" viewBox="0 0 80 80" fill="none" xmlns="http://www.w3.org/2000/svg">
<rect width="80" height="80" fill="white"/>
<path d="M32.0023 40C32.0023 35.5819 35.5829 31.9994 40.001 31.9994C44.4191 31.9994 48.0016 35.5819 48.0016 40C48.0016 44.4181 44.4191 48.0006 40.001 48.0006C35.5829 48.0006 32.0023 44.4181 32.0023 40ZM27.6773 40C27.6773 46.8064 33.1946 52.3237 40.001 52.3237C46.8074 52.3237 52.3247 46.8064 52.3247 40C52.3247 33.1936 46.8074 27.6763 40.001 27.6763C33.1946 27.6763 27.6773 33.1936 27.6773 40ZM49.9326 27.1876C49.9323 27.7573 50.101 28.3141 50.4173 28.7879C50.7336 29.2616 51.1832 29.6309 51.7094 29.8491C52.2355 30.0673 52.8146 30.1246 53.3733 30.0137C53.932 29.9028 54.4453 29.6287 54.8482 29.2261C55.2511 28.8235 55.5256 28.3104 55.637 27.7518C55.7483 27.1932 55.6915 26.6141 55.4738 26.0877C55.256 25.5614 54.887 25.1115 54.4136 24.7948C53.9401 24.4782 53.3833 24.309 52.8137 24.3088H52.8126C52.049 24.3092 51.3169 24.6125 50.7769 25.1523C50.2369 25.6921 49.9332 26.4241 49.9326 27.1876V27.1876ZM30.305 59.5354C27.9651 59.4289 26.6933 59.0391 25.8481 58.7098C24.7276 58.2736 23.9281 57.754 23.0875 56.9146C22.2469 56.0752 21.7266 55.2765 21.2923 54.156C20.9628 53.3112 20.5731 52.039 20.4667 49.6991C20.3504 47.1693 20.3271 46.4093 20.3271 40.0002C20.3271 33.591 20.3523 32.8332 20.4667 30.3013C20.5733 27.9614 20.9659 26.6917 21.2923 25.8444C21.7285 24.7239 22.2481 23.9244 23.0875 23.0838C23.9269 22.2433 24.7256 21.7229 25.8481 21.2886C26.6929 20.9592 27.9651 20.5694 30.305 20.463C32.8348 20.3467 33.5947 20.3235 40.001 20.3235C46.4072 20.3235 47.168 20.3486 49.6999 20.463C52.0398 20.5696 53.3095 20.9622 54.1568 21.2886C55.2773 21.7229 56.0768 22.2444 56.9173 23.0838C57.7579 23.9233 58.2763 24.7239 58.7125 25.8444C59.042 26.6892 59.4318 27.9614 59.5381 30.3013C59.6545 32.8332 59.6777 33.591 59.6777 40.0002C59.6777 46.4093 59.6545 47.1672 59.5381 49.6991C59.4316 52.039 59.0399 53.3108 58.7125 54.156C58.2763 55.2765 57.7568 56.076 56.9173 56.9146C56.0779 57.7533 55.2773 58.2736 54.1568 58.7098C53.312 59.0393 52.0398 59.4291 49.6999 59.5354C47.1701 59.6518 46.4101 59.675 40.001 59.675C33.5918 59.675 32.834 59.6518 30.305 59.5354V59.5354ZM30.1063 16.1453C27.5513 16.2617 25.8055 16.6668 24.2808 17.2601C22.7018 17.8728 21.3651 18.6947 20.0293 20.0284C18.6936 21.362 17.8737 22.7008 17.2611 24.2798C16.6678 25.8054 16.2627 27.5503 16.1463 30.1053C16.028 32.6643 16.001 33.4824 16.001 40C16.001 46.5176 16.028 47.3357 16.1463 49.8947C16.2627 52.4499 16.6678 54.1946 17.2611 55.7202C17.8737 57.2982 18.6938 58.6386 20.0293 59.9716C21.3649 61.3047 22.7018 62.1255 24.2808 62.7399C25.8083 63.3332 27.5513 63.7383 30.1063 63.8547C32.6666 63.971 33.4833 64 40.001 64C46.5186 64 47.3367 63.9729 49.8957 63.8547C52.4508 63.7383 54.1955 63.3332 55.7212 62.7399C57.2992 62.1255 58.6369 61.3053 59.9726 59.9716C61.3084 58.638 62.1265 57.2982 62.7409 55.7202C63.3342 54.1946 63.7412 52.4497 63.8556 49.8947C63.972 47.3338 63.9991 46.5176 63.9991 40C63.9991 33.4824 63.972 32.6643 63.8556 30.1053C63.7393 27.5501 63.3342 25.8045 62.7409 24.2798C62.1265 22.7018 61.3063 21.3641 59.9726 20.0284C58.639 18.6926 57.2992 17.8728 55.7231 17.2601C54.1955 16.6668 52.4506 16.2598 49.8976 16.1453C47.3386 16.029 46.5205 16 40.0029 16C33.4853 16 32.6666 16.0271 30.1063 16.1453Z" fill="url(#paint0_radial)"/>
<path d="M32.0023 40C32.0023 35.5819 35.5829 31.9994 40.001 31.9994C44.4191 31.9994 48.0016 35.5819 48.0016 40C48.0016 44.4181 44.4191 48.0006 40.001 48.0006C35.5829 48.0006 32.0023 44.4181 32.0023 40ZM27.6773 40C27.6773 46.8064 33.1946 52.3237 40.001 52.3237C46.8074 52.3237 52.3247 46.8064 52.3247 40C52.3247 33.1936 46.8074 27.6763 40.001 27.6763C33.1946 27.6763 27.6773 33.1936 27.6773 40ZM49.9326 27.1876C49.9323 27.7573 50.101 28.3141 50.4173 28.7879C50.7336 29.2616 51.1832 29.6309 51.7094 29.8491C52.2355 30.0673 52.8146 30.1246 53.3733 30.0137C53.932 29.9028 54.4453 29.6287 54.8482 29.2261C55.2511 28.8235 55.5256 28.3104 55.637 27.7518C55.7483 27.1932 55.6915 26.6141 55.4738 26.0877C55.256 25.5614 54.887 25.1115 54.4136 24.7948C53.9401 24.4782 53.3833 24.309 52.8137 24.3088H52.8126C52.049 24.3092 51.3169 24.6125 50.7769 25.1523C50.2369 25.6921 49.9332 26.4241 49.9326 27.1876V27.1876ZM30.305 59.5354C27.9651 59.4289 26.6933 59.0391 25.8481 58.7098C24.7276 58.2736 23.9281 57.754 23.0875 56.9146C22.2469 56.0752 21.7266 55.2765 21.2923 54.156C20.9628 53.3112 20.5731 52.039 20.4667 49.6991C20.3504 47.1693 20.3271 46.4093 20.3271 40.0002C20.3271 33.591 20.3523 32.8332 20.4667 30.3013C20.5733 27.9614 20.9659 26.6917 21.2923 25.8444C21.7285 24.7239 22.2481 23.9244 23.0875 23.0838C23.9269 22.2433 24.7256 21.7229 25.8481 21.2886C26.6929 20.9592 27.9651 20.5694 30.305 20.463C32.8348 20.3467 33.5947 20.3235 40.001 20.3235C46.4072 20.3235 47.168 20.3486 49.6999 20.463C52.0398 20.5696 53.3095 20.9622 54.1568 21.2886C55.2773 21.7229 56.0768 22.2444 56.9173 23.0838C57.7579 23.9233 58.2763 24.7239 58.7125 25.8444C59.042 26.6892 59.4318 27.9614 59.5381 30.3013C59.6545 32.8332 59.6777 33.591 59.6777 40.0002C59.6777 46.4093 59.6545 47.1672 59.5381 49.6991C59.4316 52.039 59.0399 53.3108 58.7125 54.156C58.2763 55.2765 57.7568 56.076 56.9173 56.9146C56.0779 57.7533 55.2773 58.2736 54.1568 58.7098C53.312 59.0393 52.0398 59.4291 49.6999 59.5354C47.1701 59.6518 46.4101 59.675 40.001 59.675C33.5918 59.675 32.834 59.6518 30.305 59.5354V59.5354ZM30.1063 16.1453C27.5513 16.2617 25.8055 16.6668 24.2808 17.2601C22.7018 17.8728 21.3651 18.6947 20.0293 20.0284C18.6936 21.362 17.8737 22.7008 17.2611 24.2798C16.6678 25.8054 16.2627 27.5503 16.1463 30.1053C16.028 32.6643 16.001 33.4824 16.001 40C16.001 46.5176 16.028 47.3357 16.1463 49.8947C16.2627 52.4499 16.6678 54.1946 17.2611 55.7202C17.8737 57.2982 18.6938 58.6386 20.0293 59.9716C21.3649 61.3047 22.7018 62.1255 24.2808 62.7399C25.8083 63.3332 27.5513 63.7383 30.1063 63.8547C32.6666 63.971 33.4833 64 40.001 64C46.5186 64 47.3367 63.9729 49.8957 63.8547C52.4508 63.7383 54.1955 63.3332 55.7212 62.7399C57.2992 62.1255 58.6369 61.3053 59.9726 59.9716C61.3084 58.638 62.1265 57.2982 62.7409 55.7202C63.3342 54.1946 63.7412 52.4497 63.8556 49.8947C63.972 47.3338 63.9991 46.5176 63.9991 40C63.9991 33.4824 63.972 32.6643 63.8556 30.1053C63.7393 27.5501 63.3342 25.8045 62.7409 24.2798C62.1265 22.7018 61.3063 21.3641 59.9726 20.0284C58.639 18.6926 57.2992 17.8728 55.7231 17.2601C54.1955 16.6668 52.4506 16.2598 49.8976 16.1453C47.3386 16.029 46.5205 16 40.0029 16C33.4853 16 32.6666 16.0271 30.1063 16.1453Z" fill="url(#paint1_radial)"/>
<defs>
<radialGradient id="paint0_radial" cx="0" cy="0" r="1" gradientUnits="userSpaceOnUse" gradientTransform="translate(22.3781 64.2268) scale(62.66)">
<stop offset="0.09" stop-color="#FA8F21"/>
<stop offset="0.78" stop-color="#D82D7E"/>
</radialGradient>
<radialGradient id="paint1_radial" cx="0" cy="0" r="1" gradientUnits="userSpaceOnUse" gradientTransform="translate(45.1109 66.3772) scale(49.3847)">
<stop offset="0.64" stop-color="#8C3AAA" stop-opacity="0"/>
<stop offset="1" stop-color="#8C3AAA"/>
</radialGradient>
</defs>
</svg>
